<?xml version="1.0" standalone="no"?>
<!DOCTYPE svg PUBLIC "-//W3C//DTD SVG 20010904//EN"
 "http://www.w3.org/TR/2001/REC-SVG-20010904/DTD/svg10.dtd">
<svg version="1.0" xmlns="http://www.w3.org/2000/svg"
 width="159.000000pt" height="195.000000pt" viewBox="0 0 159.000000 195.000000"
 preserveAspectRatio="xMidYMid meet">
<metadata>
Created by potrace 1.16, written by Peter Selinger 2001-2019
</metadata>
<g transform="translate(0.000000,195.000000) scale(0.100000,-0.100000)"
fill="#000000" stroke="none">
<path d="M1003 1911 c-60 -43 -120 -118 -158 -197 -47 -95 -46 -108 9 -127
l45 -15 29 61 c30 64 54 94 109 137 31 25 31 25 26 98 -3 39 -9 72 -13 72 -4
0 -25 -13 -47 -29z"/>
<path d="M1220 1834 c-99 -31 -127 -43 -167 -74 -61 -46 -107 -106 -124 -164
-12 -40 -17 -46 -34 -41 -141 40 -218 46 -285 19 -40 -16 -70 -54 -70 -89 0
-11 11 -15 49 -15 65 0 91 -22 125 -109 48 -123 99 -175 202 -206 64 -19 136
-19 228 1 41 9 81 14 89 11 8 -3 17 -19 20 -35 3 -16 9 -41 13 -56 6 -25 5
-25 -25 -15 -18 7 -73 10 -129 7 -87 -3 -105 -7 -175 -41 -43 -20 -92 -46
-108 -58 -17 -12 -32 -20 -33 -18 -2 2 -20 45 -41 94 -45 106 -102 194 -148
229 -84 64 -187 86 -308 66 -93 -16 -153 -46 -206 -103 -64 -69 -82 -113 -84
-199 -2 -130 41 -239 127 -317 69 -63 121 -88 214 -102 88 -13 165 1 282 51
38 16 74 30 79 30 5 0 21 -19 36 -42 99 -153 190 -247 274 -282 66 -27 157
-29 232 -6 38 12 67 23 64 26 -2 2 -16 0 -31 -6 -35 -13 -170 -13 -218 0 -72
20 -153 86 -226 183 -87 115 -99 137 -81 148 8 5 17 8 20 6 4 -1 49 -56 100
-122 83 -105 102 -124 158 -152 34 -18 78 -33 96 -33 49 0 130 19 151 36 16
12 12 11 -25 -1 -55 -19 -114 -19 -178 0 -40 12 -63 28 -109 78 -62 65 -154
189 -154 205 0 8 22 22 34 22 2 0 24 -32 50 -70 96 -146 167 -201 258 -203 55
-1 128 18 128 34 0 5 -11 4 -26 -1 -43 -17 -124 -12 -171 11 -53 26 -151 131
-189 204 l-29 54 23 24 c12 13 61 43 108 68 85 43 88 44 187 44 92 0 97 1 61
12 -97 29 -200 7 -318 -67 -48 -30 -70 -40 -78 -32 -17 17 -3 35 56 71 115 69
171 86 285 85 l103 0 -48 14 c-82 24 -176 13 -269 -31 -44 -21 -94 -49 -112
-63 -37 -28 -49 -30 -57 -8 -8 21 21 44 119 94 124 63 244 75 343 35 30 -12
33 -12 19 -1 -17 13 -14 16 35 38 93 43 159 132 144 194 -6 23 -10 24 -82 24
-80 0 -184 22 -221 46 -32 20 -29 50 5 68 42 21 76 77 123 201 43 112 69 160
101 183 27 20 22 30 -19 41 -38 11 -135 13 -163 5z m-695 -543 c62 -28 97 -60
145 -133 43 -66 95 -200 87 -223 -10 -24 -34 -17 -41 13 -15 58 -97 212 -133
248 -64 62 -106 78 -203 79 -112 0 -165 -20 -224 -86 -49 -55 -61 -90 -61
-179 1 -112 52 -187 163 -238 77 -35 193 -29 311 18 68 26 85 30 92 19 14 -23
7 -29 -63 -59 -230 -98 -450 -43 -529 133 -20 43 -24 68 -23 142 1 101 12 130
71 196 35 39 89 72 143 90 14 5 68 7 120 5 71 -2 107 -8 145 -25z m-29 -65
c62 -29 117 -101 163 -211 37 -89 42 -118 19 -123 -12 -2 -20 11 -33 50 -24
75 -80 172 -122 213 -40 39 -112 65 -177 65 -45 0 -113 -28 -163 -66 -42 -32
-43 -17 0 23 77 75 212 96 313 49z m-85 -46 c85 -16 150 -92 200 -233 22 -65
26 -85 16 -94 -7 -7 -51 -26 -97 -43 -133 -46 -264 -37 -328 23 -41 38 -73
102 -73 148 -1 56 11 87 52 134 35 40 62 54 124 65 22 4 43 8 46 9 4 0 30 -4
60 -9z m286 -437 c6 -17 -61 -49 -168 -79 -72 -21 -105 -26 -159 -22 -69 5
-145 35 -177 70 -21 23 -16 23 35 -2 75 -36 144 -44 229 -25 41 9 105 29 141
45 71 30 93 33 99 13z"/>
<path d="M1480 427 c-13 -7 -29 -24 -34 -39 -19 -53 45 -104 99 -80 46 21 45
99 0 120 -32 15 -34 15 -65 -1z"/>
<path d="M55 245 c-49 -48 -23 -94 68 -119 44 -13 57 -21 57 -36 0 -20 -27
-40 -55 -40 -9 0 -27 11 -41 25 -33 33 -67 34 -55 3 11 -30 67 -68 100 -68 37
0 89 35 97 65 10 40 -18 71 -83 92 -45 14 -58 22 -58 38 0 27 63 35 81 10 6
-8 21 -18 33 -20 29 -5 27 20 -4 50 -34 35 -106 35 -140 0z"/>
<path d="M280 146 l0 -126 25 0 c23 0 25 4 25 44 0 72 20 75 65 11 31 -46 42
-55 67 -55 23 0 28 3 21 13 -6 6 -29 38 -53 71 l-42 58 53 54 53 54 -30 0
c-23 0 -42 -12 -79 -50 -27 -27 -52 -50 -56 -50 -3 0 -6 21 -5 48 1 42 -2 47
-21 50 -23 3 -23 2 -23 -122z"/>
<path d="M572 254 c-50 -35 -66 -116 -36 -179 32 -68 134 -84 182 -30 29 35
28 55 -3 55 -14 0 -25 -4 -25 -9 0 -17 -31 -41 -51 -41 -11 0 -31 11 -44 25
-30 29 -34 97 -9 133 20 29 74 30 99 2 19 -21 55 -27 55 -9 0 6 -13 24 -29 40
-24 23 -38 29 -73 29 -24 0 -54 -7 -66 -16z"/>
<path d="M946 151 c-25 -66 -46 -122 -46 -125 0 -4 9 -6 21 -6 13 0 25 11 35
35 13 32 17 35 58 35 42 0 45 -2 56 -35 9 -28 17 -35 37 -35 29 0 31 -12 -30
142 -35 89 -46 108 -63 108 -18 0 -29 -19 -68 -119z"/>
<path d="M1170 146 l0 -126 25 0 c23 0 25 4 25 48 l0 47 51 1 c63 1 93 27 93
79 0 55 -22 69 -114 73 l-80 4 0 -126z"/>
</g>
</svg>
